<svg width="298" height="74" viewBox="0 0 298 74" fill="none" xmlns="http://www.w3.org/2000/svg">
<path d="M54.13 10.52L43.4 23.25C40 18.69 35 15.73 30.67 15.73C23.94 15.73 19.06 21.09 19.06 28.54C19.06 35.99 23.94 41.54 30.67 41.54C34.67 41.54 39.67 39.06 43.4 35.13L54.13 46.56C47.89 53.36 38.36 57.77 29.71 57.77C12.49 57.77 0 45.51 0 28.78C0 12.28 12.81 0.27002 30.43 0.27002C34.8601 0.337731 39.2334 1.27783 43.3 3.03659C47.3666 4.79534 51.0467 7.33827 54.13 10.52V10.52Z" fill="#005092"/>
<path d="M99.78 28.62V56.97H82.08V52.24C79.52 55.77 75.35 57.77 69.75 57.77C60.46 57.77 55.09 52.32 55.09 43.99C55.09 35.34 60.94 30.78 72.09 30.62H82.09C82.01 27.62 79.69 25.82 75.28 25.82C70.731 26.0288 66.246 26.9744 62 28.62L58 16.62C64.9062 13.9851 72.2105 12.5445 79.6 12.36C92.25 12.36 99.78 18.29 99.78 28.62ZM82.08 42.95V38.95H75.83C73.35 38.95 71.99 40.15 71.99 42.47C71.99 44.79 73.43 46.32 75.99 46.32C77.2038 46.3017 78.3944 45.9846 79.4566 45.3969C80.5188 44.8091 81.4198 43.9687 82.08 42.95V42.95Z" fill="#005092"/>
<path d="M125.4 19.57C126.829 17.3257 128.809 15.4848 131.151 14.2227C133.493 12.9606 136.12 12.3193 138.78 12.36V28.62C130.69 27.42 125.4 30.3 125.4 36.07V56.97H107.4V13.16H125.4V19.57Z" fill="#005092"/>
<path d="M192.35 6.68L185.62 20.77C179.94 17.65 171.21 14.2 166.33 14.2C164.24 14.2 162.88 14.84 162.88 16.53C162.88 23.53 191.95 19.17 191.95 39.53C191.95 52.02 180.95 57.53 168.33 57.53C158.56 57.53 147.67 54.24 140.22 48.53L147.11 34.59C152.87 39.4 162.8 43.32 168.49 43.32C171.21 43.32 172.97 42.44 172.97 40.44C172.97 33.15 143.9 37.96 143.9 18.26C143.9 7.05 153.35 0 167.9 0C176.82 0.03 186 2.67 192.35 6.68Z" fill="#E4051F"/>
<path d="M225.5 60.03C221.82 69.16 215.65 73.32 206.28 73.32C200.798 73.4014 195.456 71.5935 191.15 68.2L198.68 56.35C199.434 57.1437 200.339 57.779 201.342 58.2185C202.345 58.6581 203.425 58.8932 204.52 58.91C205.381 58.9907 206.246 58.8226 207.014 58.4254C207.781 58.0283 208.419 57.419 208.85 56.67L209.49 55.67L191.31 13.16H209.81L218.46 38.16L225.58 13.16H243.52L225.5 60.03Z" fill="#E4051F"/>
<path d="M284.6 17.89L278.67 29.03C272.19 25.83 267.22 24.22 263.86 24.22C262.34 24.22 261.38 24.78 261.38 25.67C261.38 29.75 284.12 28.15 284.12 42.88C284.12 51.88 276.35 57.78 264.26 57.78C256.662 57.9326 249.2 55.7512 242.88 51.53L248.33 40.32C254.17 43.92 259.62 45.76 264.5 45.76C266.18 45.76 267.22 45.28 267.22 44.48C267.22 40.64 244.96 42.32 244.96 27.48C244.96 18.27 252.57 12.34 264.26 12.34C271.407 12.3886 278.418 14.3016 284.6 17.89V17.89Z" fill="#E4051F"/>
<path d="M297 7.07997C297.036 8.03278 296.879 8.98302 296.539 9.87386C296.199 10.7647 295.683 11.5778 295.022 12.2646C294.36 12.9513 293.567 13.4976 292.69 13.8707C291.812 14.2439 290.868 14.4362 289.915 14.4362C288.962 14.4362 288.018 14.2439 287.14 13.8707C286.263 13.4976 285.47 12.9513 284.808 12.2646C284.147 11.5778 283.631 10.7647 283.291 9.87386C282.951 8.98302 282.794 8.03278 282.83 7.07997C282.823 6.14975 283.002 5.22752 283.356 4.36718C283.71 3.50684 284.231 2.72565 284.891 2.06927C285.55 1.41288 286.333 0.894466 287.195 0.544318C288.057 0.194171 288.98 0.0193157 289.91 0.0299713C290.844 0.00542478 291.774 0.170698 292.643 0.515791C293.511 0.860884 294.301 1.37862 294.964 2.03768C295.627 2.69673 296.149 3.48341 296.499 4.3501C296.849 5.21679 297.019 6.14548 297 7.07997ZM295.84 7.07997C295.863 6.29568 295.727 5.51486 295.438 4.78509C295.15 4.05532 294.716 3.39187 294.163 2.83518C293.61 2.27849 292.95 1.84021 292.222 1.54705C291.494 1.25389 290.714 1.11198 289.93 1.12997C289.137 1.11078 288.348 1.25287 287.611 1.5476C286.875 1.84234 286.206 2.28359 285.645 2.84461C285.084 3.40563 284.642 4.07474 284.348 4.81136C284.053 5.54799 283.911 6.3368 283.93 7.12997C283.897 7.92986 284.026 8.72814 284.31 9.47684C284.593 10.2255 285.025 10.9092 285.579 11.4868C286.134 12.0644 286.799 12.5239 287.536 12.8379C288.272 13.1518 289.064 13.3136 289.865 13.3136C290.666 13.3136 291.458 13.1518 292.194 12.8379C292.931 12.5239 293.596 12.0644 294.151 11.4868C294.705 10.9092 295.137 10.2255 295.42 9.47684C295.704 8.72814 295.833 7.92986 295.8 7.12997L295.84 7.07997ZM292 8.35997L293.73 11.03H292L290.44 8.61997H288.65V11.03H286.92V3.15997H290.21C292.3 3.15997 293.55 4.24997 293.55 5.90997C293.583 6.42959 293.451 6.9463 293.172 7.3863C292.894 7.8263 292.484 8.16708 292 8.35997V8.35997ZM290.15 7.35997C291.28 7.35997 291.92 6.83997 291.92 5.94997C291.92 5.05997 291.28 4.56997 290.15 4.56997H288.67V7.31997L290.15 7.35997Z" fill="#E4051F"/>
</svg>
