<?xml version="1.0" encoding="UTF-8"?>
<svg xmlns="http://www.w3.org/2000/svg" xmlns:xlink="http://www.w3.org/1999/xlink" id="Laag_1" viewBox="0 0 480.24 107.89">
  <defs>
    <style>.cls-1{fill:#b8181d;}.cls-2{fill:url(#Naamloos_verloop_27);}</style>
    <linearGradient id="Naamloos_verloop_27" x1="-37.73" y1="1602.57" x2="790.17" y2="2080.56" gradientTransform="translate(0 -1707.16)" gradientUnits="userSpaceOnUse">
      <stop offset="0" stop-color="#76b7dd"></stop>
      <stop offset=".1" stop-color="#63a6cd"></stop>
      <stop offset=".38" stop-color="#307ca4"></stop>
      <stop offset=".63" stop-color="#00628a"></stop>
      <stop offset=".84" stop-color="#00547c"></stop>
      <stop offset=".99" stop-color="#005077"></stop>
    </linearGradient>
  </defs>
  <rect class="cls-1" x="130.4" y="1.1" width="18.71" height="15.41"></rect>
  <path class="cls-2" d="M104.58,1.1h19.81l-29.72,103.48h-15.41L62.75,36.33l-17.61,68.25h-15.41L0,1.1H19.81l17.61,71.55L55.03,1.1h14.31l17.61,71.55S104.58,1.1,104.58,1.1Zm25.82,103.48h18.71V26.42h-18.71V104.58h0ZM215.98,28.35c-4.79-2.11-9.8-3.16-15.03-3.16-4.63,0-8.88,.78-12.73,2.34-2.61,1.06-4.81,2.41-6.58,4.06,0-1.59-.03-4.06-.03-4.06h-18.71V104.59h18.71V58.36c0-5,1.46-8.79,4.37-11.39,2.91-2.59,6.46-3.89,10.63-3.89,2.75,0,5.45,.61,8.08,1.82,2.64,1.22,4.77,2.99,6.4,5.33s2.44,5.05,2.44,8.12v46.23h18.71V53.94c0-6.33-1.51-11.65-4.54-15.96-3.01-4.31-6.92-7.52-11.72-9.63h0Zm245.55,4.68v-5.5h-17.61V104.59h18.71V62.76c0-5.32,.61-9.26,1.82-11.83,1.21-2.57,2.88-4.3,4.99-5.19s5.71-1.82,10.8-2.79V24.24c-4.54,.51-8.15,1.46-10.84,2.86-2.68,1.38-5.3,3.36-7.87,5.93h0Zm-166.34-13.73c10.86,0,20.54,5.08,26.79,12.99h22.3C336.08,13.3,317.18,0,295.18,0c-29.52,0-53.46,23.93-53.46,53.46s23.93,53.46,53.46,53.46c21.95,0,40.8-13.23,49.04-32.15h-22.35c-6.26,7.83-15.88,12.85-26.69,12.85-18.87,0-34.16-15.29-34.16-34.16,.01-18.86,15.3-34.16,34.17-34.16h0Zm118.23,7.26h17.61V105.82h-17.61v-5.7c-6.83,4.88-15.18,7.77-24.22,7.77-23.03,0-41.69-18.67-41.69-41.69s18.67-41.69,41.69-41.69c9.03,0,17.39,2.88,24.22,7.77v-5.72h0Zm0,39.63c0-13.38-10.84-24.22-24.22-24.22s-24.22,10.84-24.22,24.22,10.84,24.22,24.22,24.22,24.22-10.85,24.22-24.22Z"></path>
</svg>
